<svg xmlns="http://www.w3.org/2000/svg">
  <defs>
    <symbol viewBox="0 0 24 24" fill="none" stroke="#000" stroke-width="2" stroke-linecap="round" stroke-linejoin="round" id="remove">
      <polyline points="3 6 5 6 21 6"></polyline>
      <path d="M19 6v14a2 2 0 0 1-2 2H7a2 2 0 0 1-2-2V6m3 0V4a2 2 0 0 1 2-2h4a2 2 0 0 1 2 2v2"></path>
      <line x1="10" y1="11" x2="10" y2="17"></line>
      <line x1="14" y1="11" x2="14" y2="17"></line>
    </symbol>

    <symbol viewBox="0 0 24 24" fill="none" stroke="#000" stroke-width="2" stroke-linecap="round" stroke-linejoin="round" id="edit">
      <path d="M17 3a2.828 2.828 0 1 1 4 4L7.5 20.5 2 22l1.5-5.5L17 3z"></path>
    </symbol>

    <symbol viewBox="0 0 24 24" fill="none" stroke="#000" stroke-width="2" stroke-linecap="round" stroke-linejoin="round" id="confirm">
      <polyline points="20 6 9 17 4 12"></polyline>
    </symbol>
  </defs>
</svg>
